<svg xmlns="http://www.w3.org/2000/svg" width="20" height="20"  viewBox="0 0 20 20"><g transform="matrix(1 0 0 1 0 0)"  ><g style=""   ><g transform="matrix(0.83 0 0 0.83 10 10)"  ><path style="stroke: none; stroke-width: 1; stroke-dasharray: none; stroke-linecap: butt; stroke-dashoffset: 0; stroke-linejoin: miter; stroke-miterlimit: 4; fill: rgb(27,34,177); fill-rule: nonzero; opacity: 1;"  transform=" translate(-12, -12)" d="M 12.1226 1.00463 C 12.3659 1.0245 12.6004 1.10396 12.8062 1.2351 L 12.9068 1.30444 L 13.0015 1.38256 C 13.1833 1.5454 13.3221 1.75038 13.4068 1.97924 L 13.4449 2.09545 L 13.4507 2.11498 L 15.0318 8.25072 L 15.0308 8.25072 C 15.0755 8.42361 15.1663 8.58149 15.2925 8.70776 C 15.4188 8.83398 15.5767 8.92385 15.7496 8.9685 L 21.8843 10.5496 L 21.9009 10.5544 C 22.1778 10.6308 22.4258 10.7846 22.6168 10.9968 L 22.6959 11.0915 L 22.7662 11.1921 C 22.9198 11.4325 23.0025 11.7127 23.0025 11.9997 C 23.0025 12.328 22.8947 12.6477 22.6959 12.9089 C 22.5219 13.1374 22.2862 13.3107 22.0181 13.4089 L 21.9009 13.446 C 21.8955 13.4475 21.8898 13.4485 21.8843 13.4499 L 15.7496 15.031 C 15.5766 15.0756 15.4189 15.1664 15.2925 15.2927 C 15.1664 15.4189 15.0755 15.5761 15.0308 15.7488 L 15.0318 15.7497 L 13.4498 21.8845 L 13.4439 21.904 C 13.3557 22.2193 13.1666 22.4972 12.9058 22.6951 C 12.645 22.8929 12.3269 23.0007 11.9996 23.0007 C 11.6723 23.0007 11.3541 22.8928 11.0933 22.6951 C 10.8652 22.522 10.6912 22.2882 10.5923 22.0212 L 10.5552 21.904 C 10.5534 21.8975 10.5511 21.8911 10.5494 21.8845 L 8.96832 15.7497 C 8.92369 15.5768 8.83383 15.419 8.70758 15.2927 C 8.61271 15.1979 8.50001 15.1231 8.37653 15.073 L 8.25055 15.031 L 2.11578 13.449 L 2.09235 13.4431 C 1.77835 13.354 1.50203 13.1644 1.30524 12.904 C 1.13303 12.6762 1.02947 12.4048 1.00641 12.1218 L 1.00153 11.9997 L 1.00641 11.8777 C 1.02955 11.5948 1.13313 11.3232 1.30524 11.0955 L 1.38239 11.0017 C 1.57142 10.7898 1.81755 10.6354 2.09235 10.5574 L 2.11481 10.5505 L 8.25055 8.96752 L 8.37653 8.92553 C 8.49992 8.87546 8.61275 8.80154 8.70758 8.70678 C 8.83366 8.58078 8.92351 8.42323 8.96832 8.25072 L 10.5504 2.11498 L 10.5562 2.09545 C 10.6444 1.78025 10.8335 1.50226 11.0943 1.30444 L 11.1939 1.2351 C 11.4342 1.08187 11.7139 0.999748 12.0005 0.999748 L 12.1226 1.00463 Z M 10.9048 8.74975 L 10.9048 8.75072 C 10.7707 9.26938 10.5006 9.74313 10.1216 10.1218 C 9.78998 10.4532 9.3854 10.7009 8.94196 10.8474 L 8.74957 10.904 L 4.50348 11.9988 L 8.74957 13.0945 L 8.94196 13.1511 C 9.3857 13.2978 9.78987 13.5469 10.1216 13.8787 C 10.5005 14.2576 10.7709 14.7309 10.9048 15.2497 L 10.9058 15.2507 L 11.9986 19.4958 L 13.0943 15.2507 L 13.0943 15.2497 L 13.1509 15.0574 C 13.2976 14.6139 13.5469 14.2103 13.8785 13.8787 C 14.2576 13.4996 14.7314 13.2284 15.2505 13.0945 L 19.4976 11.9997 L 15.2505 10.905 C 14.7315 10.7711 14.2575 10.5008 13.8785 10.1218 C 13.5467 9.79007 13.2976 9.38583 13.1509 8.94213 L 13.0943 8.74975 L 11.9996 4.50268 L 10.9048 8.74975 Z" stroke-linecap="round" /></g><g transform="matrix(0.83 0 0 0.83 16.67 4.17)"  ><path style="stroke: none; stroke-width: 1; stroke-dasharray: none; stroke-linecap: butt; stroke-dashoffset: 0; stroke-linejoin: miter; stroke-miterlimit: 4; fill: rgb(27,34,177); fill-rule: nonzero; opacity: 1;"  transform=" translate(-20, -5)" d="M 19 7 L 19 3 C 19 2.44772 19.4477 2 20 2 C 20.5523 2 21 2.44772 21 3 L 21 7 C 21 7.55228 20.5523 8 20 8 C 19.4477 8 19 7.55228 19 7 Z" stroke-linecap="round" /></g><g transform="matrix(0.83 0 0 0.83 16.67 4.17)"  ><path style="stroke: none; stroke-width: 1; stroke-dasharray: none; stroke-linecap: butt; stroke-dashoffset: 0; stroke-linejoin: miter; stroke-miterlimit: 4; fill: rgb(27,34,177); fill-rule: nonzero; opacity: 1;"  transform=" translate(-20, -5)" d="M 22 4 C 22.5523 4 23 4.44772 23 5 C 23 5.55228 22.5523 6 22 6 L 18 6 C 17.4477 6 17 5.55228 17 5 C 17 4.44772 17.4477 4 18 4 L 22 4 Z" stroke-linecap="round" /></g><g transform="matrix(0.83 0 0 0.83 3.33 15)"  ><path style="stroke: none; stroke-width: 1; stroke-dasharray: none; stroke-linecap: butt; stroke-dashoffset: 0; stroke-linejoin: miter; stroke-miterlimit: 4; fill: rgb(27,34,177); fill-rule: nonzero; opacity: 1;"  transform=" translate(-4, -18)" d="M 3 19 L 3 17 C 3 16.4477 3.44772 16 4 16 C 4.55228 16 5 16.4477 5 17 L 5 19 C 5 19.5523 4.55228 20 4 20 C 3.44772 20 3 19.5523 3 19 Z" stroke-linecap="round" /></g><g transform="matrix(0.83 0 0 0.83 3.33 15)"  ><path style="stroke: none; stroke-width: 1; stroke-dasharray: none; stroke-linecap: butt; stroke-dashoffset: 0; stroke-linejoin: miter; stroke-miterlimit: 4; fill: rgb(27,34,177); fill-rule: nonzero; opacity: 1;"  transform=" translate(-4, -18)" d="M 5 17 C 5.55228 17 6 17.4477 6 18 C 6 18.5523 5.55228 19 5 19 L 3 19 C 2.44772 19 2 18.5523 2 18 C 2 17.4477 2.44772 17 3 17 L 5 17 Z" stroke-linecap="round" /></g></g></g></svg>