<svg xmlns="http://www.w3.org/2000/svg" width="22" height="22"  viewBox="0 0 22 22"><g transform="matrix(1 0 0 1 0 0)"  ><g style=""   ><g transform="matrix(0.92 0 0 0.92 11.92 11.46)"  ><path style="stroke: none; stroke-width: 1; stroke-dasharray: none; stroke-linecap: butt; stroke-dashoffset: 0; stroke-linejoin: miter; stroke-miterlimit: 4; fill: rgb(35,62,120); fill-rule: nonzero; opacity: 1;"  transform=" translate(-13, -12.5)" d="M 21 3 L 5 3 C 4.447 3 4 3.447 4 4 L 4 6.59 C 4 7.1129999999999995 4.213 7.627 4.583 7.997 L 10 13.414 L 10 21 C 10 21.347 10.18 21.668 10.475 21.851 C 10.635 21.95 10.817 22 11 22 C 11.153 22 11.306 21.965 11.447 21.895 L 15.447 19.895 C 15.786 19.725 16 19.379 16 19 L 16 13.414 L 21.417 7.997 C 21.787 7.627 22 7.113 22 6.59 L 22 4 C 22 3.447 21.553 3 21 3 z M 14.293 12.293 C 14.105 12.48 14 12.734 14 13 L 14 18.381999999999998 L 12 19.381999999999998 L 12 13 C 12 12.734 11.895 12.48 11.707 12.293 L 6 6.59 L 6 5 L 20.000999999999998 5 L 20.002999999999997 6.583 L 14.293 12.293 z" stroke-linecap="round" /></g></g></g></svg>