<svg xmlns="http://www.w3.org/2000/svg" width="28" height="28"  viewBox="0 0 28 28"><g transform="matrix(1 0 0 1 0 0)"  ><g style=""   ><g transform="matrix(1.17 0 0 1.17 13.98 14)"  ><path style="stroke: none; stroke-width: 1; stroke-dasharray: none; stroke-linecap: butt; stroke-dashoffset: 0; stroke-linejoin: miter; stroke-miterlimit: 4; fill: rgb(211,141,0); fill-rule: nonzero; opacity: 1;"  transform=" translate(-11.98, -12)" d="M 19.545 15.025 L 19.545 12.604 L 21.967 12.604 L 21.967 10.789 L 19.545 10.789 L 19.545 8.368 L 17.73 8.368 L 17.73 10.789 L 15.309 10.789 L 15.309 12.604 L 17.73 12.604 L 17.73 15.025 z M 8.052 8.302 C 9.184999999999999 8.302 9.948 8.786 10.382 9.198 L 12.104 7.5280000000000005 C 11.056 6.548 9.689 5.948 8.052 5.948 C 4.714 5.947 2 8.659 2 12 C 2 15.341 4.714 18.053 8.052 18.053 C 11.545 18.053 13.864 15.596 13.864 12.14 C 13.864 11.637 13.8 11.280000000000001 13.711 10.9 L 8.049 10.9 L 8.049 13.151 L 8.049 13.156 L 11.381 13.156 C 11.223 14.107000000000001 10.370000000000001 15.712 8.052 15.712 C 6.0489999999999995 15.712 4.414999999999999 14.047 4.414999999999999 12.008 C 4.415 9.966 6.049 8.302 8.052 8.302 z" stroke-linecap="round" /></g></g></g></svg>