<svg xmlns="http://www.w3.org/2000/svg" width="16" height="16"  viewBox="0 0 16 16"><g transform="matrix(1 0 0 1 0 0)"  ><g style=""   ><g transform="matrix(0.67 0 0 0.67 6.67 4)"  ><path style="stroke: none; stroke-width: 1; stroke-dasharray: none; stroke-linecap: butt; stroke-dashoffset: 0; stroke-linejoin: miter; stroke-miterlimit: 4; fill: rgb(23,26,31); fill-rule: nonzero; opacity: 1;"  transform=" translate(-10, -6)" d="M 11 8 L 11 5 L 8 5 C 7.44772 5 7 4.55228 7 4 C 7 3.44772 7.44772 3 8 3 L 12 3 L 12.1025 3.00488 C 12.6067 3.05621 13 3.48232 13 4 L 13 8 C 13 8.55228 12.5523 9 12 9 C 11.4477 9 11 8.55228 11 8 Z" stroke-linecap="round" /></g><g transform="matrix(0.67 0 0 0.67 8 9.33)"  ><path style="stroke: none; stroke-width: 1; stroke-dasharray: none; stroke-linecap: butt; stroke-dashoffset: 0; stroke-linejoin: miter; stroke-miterlimit: 4; fill: rgb(23,26,31); fill-rule: nonzero; opacity: 1;"  transform=" translate(-12, -14)" d="M 19 10 C 19 9.44772 18.5523 9 18 9 L 6 9 C 5.44772 9 5 9.44772 5 10 L 5 18 C 5 18.5523 5.44772 19 6 19 L 18 19 C 18.5523 19 19 18.5523 19 18 L 19 10 Z M 21 18 C 21 19.6569 19.6569 21 18 21 L 6 21 C 4.34315 21 3 19.6569 3 18 L 3 10 C 3 8.34315 4.34315 7 6 7 L 18 7 C 19.6569 7 21 8.34315 21 10 L 21 18 Z" stroke-linecap="round" /></g><g transform="matrix(0.67 0 0 0.67 2 9.33)"  ><path style="stroke: none; stroke-width: 1; stroke-dasharray: none; stroke-linecap: butt; stroke-dashoffset: 0; stroke-linejoin: miter; stroke-miterlimit: 4; fill: rgb(23,26,31); fill-rule: nonzero; opacity: 1;"  transform=" translate(-3, -14)" d="M 4 13 C 4.55228 13 5 13.4477 5 14 C 5 14.5523 4.55228 15 4 15 L 2 15 C 1.44772 15 1 14.5523 1 14 C 1 13.4477 1.44772 13 2 13 L 4 13 Z" stroke-linecap="round" /></g><g transform="matrix(0.67 0 0 0.67 14 9.33)"  ><path style="stroke: none; stroke-width: 1; stroke-dasharray: none; stroke-linecap: butt; stroke-dashoffset: 0; stroke-linejoin: miter; stroke-miterlimit: 4; fill: rgb(23,26,31); fill-rule: nonzero; opacity: 1;"  transform=" translate(-21, -14)" d="M 22 13 C 22.5523 13 23 13.4477 23 14 C 23 14.5523 22.5523 15 22 15 L 20 15 C 19.4477 15 19 14.5523 19 14 C 19 13.4477 19.4477 13 20 13 L 22 13 Z" stroke-linecap="round" /></g><g transform="matrix(0.67 0 0 0.67 10 9.33)"  ><path style="stroke: none; stroke-width: 1; stroke-dasharray: none; stroke-linecap: butt; stroke-dashoffset: 0; stroke-linejoin: miter; stroke-miterlimit: 4; fill: rgb(23,26,31); fill-rule: nonzero; opacity: 1;"  transform=" translate(-15, -14)" d="M 14 15 L 14 13 C 14 12.4477 14.4477 12 15 12 C 15.5523 12 16 12.4477 16 13 L 16 15 C 16 15.5523 15.5523 16 15 16 C 14.4477 16 14 15.5523 14 15 Z" stroke-linecap="round" /></g><g transform="matrix(0.67 0 0 0.67 6 9.33)"  ><path style="stroke: none; stroke-width: 1; stroke-dasharray: none; stroke-linecap: butt; stroke-dashoffset: 0; stroke-linejoin: miter; stroke-miterlimit: 4; fill: rgb(23,26,31); fill-rule: nonzero; opacity: 1;"  transform=" translate(-9, -14)" d="M 8 15 L 8 13 C 8 12.4477 8.44772 12 9 12 C 9.55228 12 10 12.4477 10 13 L 10 15 C 10 15.5523 9.55228 16 9 16 C 8.44772 16 8 15.5523 8 15 Z" stroke-linecap="round" /></g></g></g></svg>