<svg xmlns="http://www.w3.org/2000/svg" width="16" height="16"  viewBox="0 0 16 16"><g transform="matrix(1 0 0 1 0 0)"  ><g style=""   ><g transform="matrix(0.67 0 0 0.67 8 9.33)"  ><path style="stroke: none; stroke-width: 1; stroke-dasharray: none; stroke-linecap: butt; stroke-dashoffset: 0; stroke-linejoin: miter; stroke-miterlimit: 4; fill: rgb(23,26,31); fill-rule: nonzero; opacity: 1;"  transform=" translate(-12, -14)" d="M 11 21 L 11 7 C 11 6.44772 11.4477 6 12 6 C 12.5523 6 13 6.44772 13 7 L 13 21 C 13 21.5523 12.5523 22 12 22 C 11.4477 22 11 21.5523 11 21 Z" stroke-linecap="round" /></g><g transform="matrix(0.67 0 0 0.67 8 8)"  ><path style="stroke: none; stroke-width: 1; stroke-dasharray: none; stroke-linecap: butt; stroke-dashoffset: 0; stroke-linejoin: miter; stroke-miterlimit: 4; fill: rgb(23,26,31); fill-rule: nonzero; opacity: 1;"  transform=" translate(-12, -12)" d="M 16 4 C 15.2044 4 14.4415 4.3163 13.8789 4.87891 C 13.3163 5.44152 13 6.20435 13 7 L 12.9951 7.10254 C 12.9438 7.60667 12.5177 8 12 8 C 11.4477 8 11 7.55228 11 7 C 11 6.20435 10.6837 5.44152 10.1211 4.87891 C 9.55848 4.3163 8.79565 4 8 4 L 3 4 L 3 17 L 9 17 L 9.19824 17.0049 C 10.1869 17.0539 11.1248 17.4686 11.8281 18.1719 C 11.8876 18.2314 11.9447 18.2927 12 18.3555 C 12.0553 18.2927 12.1124 18.2314 12.1719 18.1719 C 12.922 17.4217 13.9391 17 15 17 L 21 17 L 21 4 L 16 4 Z M 23 17 C 23 17.5304 22.7891 18.039 22.4141 18.4141 C 22.039 18.7891 21.5304 19 21 19 L 15 19 C 14.4696 19 13.961 19.2109 13.5859 19.5859 C 13.2109 19.961 13 20.4696 13 21 C 13 21.5523 12.5523 22 12 22 C 11.4477 22 11 21.5523 11 21 C 11 20.4696 10.7891 19.961 10.4141 19.5859 C 10.0858 19.2577 9.65526 19.0551 9.19727 19.0098 L 9 19 L 3 19 C 2.46957 19 1.96101 18.7891 1.58594 18.4141 C 1.25765 18.0858 1.05515 17.6553 1.00977 17.1973 L 1 17 L 1 4 C 1 3.46957 1.21086 2.96101 1.58594 2.58594 C 1.96101 2.21086 2.46957 2 3 2 L 8 2 C 9.32608 2 10.5975 2.52716 11.5352 3.46484 C 11.7036 3.63332 11.8587 3.81256 12 4.00098 C 12.1413 3.81256 12.2964 3.63332 12.4648 3.46484 C 13.4025 2.52716 14.6739 2 16 2 L 21 2 C 21.5304 2 22.039 2.21086 22.4141 2.58594 C 22.7891 2.96101 23 3.46957 23 4 L 23 17 Z" stroke-linecap="round" /></g></g></g></svg>