<svg xmlns="http://www.w3.org/2000/svg" width="16" height="16"  viewBox="0 0 16 16"><g transform="matrix(1 0 0 1 0 0)"  ><g style=""   ><g transform="matrix(0.67 0 0 0.67 8 8)"  ><path style="stroke: none; stroke-width: 1; stroke-dasharray: none; stroke-linecap: butt; stroke-dashoffset: 0; stroke-linejoin: miter; stroke-miterlimit: 4; fill: rgb(23,26,31); fill-rule: nonzero; opacity: 1;"  transform=" translate(-12, -12)" d="M 10 3 L 4 3 C 3.448 3 3 3.448 3 4 L 3 10 C 3 10.552 3.448 11 4 11 L 10 11 C 10.552 11 11 10.552 11 10 L 11 4 C 11 3.448 10.552 3 10 3 z M 9 9 L 5 9 L 5 5 L 9 5 L 9 9 z M 14 11 L 20 11 C 20.553 11 21 10.552 21 10 L 21 4 C 21 3.448 20.553 3 20 3 L 14 3 C 13.447 3 13 3.448 13 4 L 13 10 C 13 10.552 13.447 11 14 11 z M 15 5 L 19 5 L 19 9 L 15 9 L 15 5 z M 3 20 C 3 20.552 3.448 21 4 21 L 10 21 C 10.552 21 11 20.552 11 20 L 11 14 C 11 13.448 10.552 13 10 13 L 4 13 C 3.448 13 3 13.448 3 14 L 3 20 z M 5 15 L 9 15 L 9 19 L 5 19 L 5 15 z M 13 20 C 13 20.552 13.447 21 14 21 L 20 21 C 20.553 21 21 20.552 21 20 L 21 14 C 21 13.448 20.553 13 20 13 L 14 13 C 13.447 13 13 13.448 13 14 L 13 20 z M 15 15 L 19 15 L 19 19 L 15 19 L 15 15 z" stroke-linecap="round" /></g></g></g></svg>