<svg xmlns="http://www.w3.org/2000/svg" width="16" height="16"  viewBox="0 0 16 16"><g transform="matrix(1 0 0 1 0 0)"  ><g style=""   ><g transform="matrix(0.57 0 0 0.57 8 8)"  ><circle style="stroke: rgb(23,26,31); stroke-width: 2.4; stroke-dasharray: none; stroke-linecap: square; stroke-dashoffset: 0; stroke-linejoin: miter; stroke-miterlimit: 10; fill: none; fill-rule: nonzero; opacity: 1;"  cx="0" cy="0" r="3" /></g><g transform="matrix(0.57 0 0 0.57 8 8)"  ><path style="stroke: rgb(23,26,31); stroke-width: 2.4; stroke-dasharray: none; stroke-linecap: square; stroke-dashoffset: 0; stroke-linejoin: miter; stroke-miterlimit: 10; fill: none; fill-rule: nonzero; opacity: 1;"  transform=" translate(-12, -12)" d="M 20 12 C 19.998815392175782 11.423917527455599 19.935787584820005 10.849626921070254 19.811999999999998 10.286999999999995 L 22.526 8.232 L 20.526 4.767999999999999 L 17.383 6.094 C 16.531862534631635 5.313699335403471 15.521654865466173 4.7272261900824875 14.421999999999993 4.374999999999997 L 14 1 L 10 1 L 9.578 4.375 C 8.478345134533823 4.727226190082491 7.468137465368361 5.3136993354034745 6.617 6.094000000000002 L 3.474 4.768 L 1.4740000000000002 8.232 L 4.188000000000001 10.286999999999999 C 3.9373927211286412 11.415251311684914 3.9373927211286412 12.584748688315084 4.188000000000001 13.713 L 1.474 15.768 L 3.474 19.232 L 6.617 17.906 C 7.468137465368361 18.686300664596526 8.47834513453382 19.27277380991751 9.577999999999996 19.625 L 10 23 L 14 23 L 14.422 19.625 C 15.521654865466179 19.27277380991751 16.53186253463164 18.686300664596526 17.383000000000003 17.905999999999995 L 20.526 19.232 L 22.526 15.767999999999999 L 19.812 13.713 C 19.935787584820005 13.150373078929741 19.99881539217578 12.576082472544401 20 11.999999999999998 Z" stroke-linecap="round" /></g></g></g></svg>