<svg xmlns="http://www.w3.org/2000/svg" width="16" height="16"  viewBox="0 0 16 16"><g transform="matrix(1 0 0 1 0 0)"  ><g style=""   ><g transform="matrix(0.67 0 0 0.67 8 7.33)"  ><path style="stroke: none; stroke-width: 1; stroke-dasharray: none; stroke-linecap: butt; stroke-dashoffset: 0; stroke-linejoin: miter; stroke-miterlimit: 4; fill: rgb(23,26,31); fill-rule: nonzero; opacity: 1;"  transform=" translate(-12, -11)" d="M 15 20 L 15 4 C 15 3.73478 14.8946 3.48051 14.707 3.29297 C 14.5429 3.12883 14.3276 3.02757 14.0986 3.00488 L 14 3 L 10 3 C 9.73478 3 9.48051 3.10543 9.29297 3.29297 C 9.10543 3.48051 9 3.73478 9 4 L 9 20 C 9 20.5523 8.55228 21 8 21 C 7.44772 21 7 20.5523 7 20 L 7 4 C 7 3.20435 7.3163 2.44152 7.87891 1.87891 C 8.44152 1.3163 9.20435 1 10 1 L 14 1 L 14.2969 1.01465 C 14.9835 1.08291 15.6289 1.38671 16.1211 1.87891 C 16.6837 2.44152 17 3.20435 17 4 L 17 20 C 17 20.5523 16.5523 21 16 21 C 15.4477 21 15 20.5523 15 20 Z" stroke-linecap="round" /></g><g transform="matrix(0.67 0 0 0.67 8 8.67)"  ><path style="stroke: none; stroke-width: 1; stroke-dasharray: none; stroke-linecap: butt; stroke-dashoffset: 0; stroke-linejoin: miter; stroke-miterlimit: 4; fill: rgb(23,26,31); fill-rule: nonzero; opacity: 1;"  transform=" translate(-12, -13)" d="M 21 8 C 21 7.44772 20.5523 7 20 7 L 4 7 C 3.44772 7 3 7.44772 3 8 L 3 18 C 3 18.5523 3.44772 19 4 19 L 20 19 C 20.5523 19 21 18.5523 21 18 L 21 8 Z M 23 18 C 23 19.6569 21.6569 21 20 21 L 4 21 C 2.34315 21 1 19.6569 1 18 L 1 8 C 1 6.34315 2.34315 5 4 5 L 20 5 C 21.6569 5 23 6.34315 23 8 L 23 18 Z" stroke-linecap="round" /></g></g></g></svg>