<svg xmlns="http://www.w3.org/2000/svg" width="16" height="16"  viewBox="0 0 16 16"><g transform="matrix(1 0 0 1 0 0)"  ><g style=""   ><g transform="matrix(0.06 0 0 0.06 8 8)" id="Flat"  ><path style="stroke: none; stroke-width: 1; stroke-dasharray: none; stroke-linecap: butt; stroke-dashoffset: 0; stroke-linejoin: miter; stroke-miterlimit: 4; fill: rgb(23,26,31); fill-rule: nonzero; opacity: 1;"  transform=" translate(-128, -128)" d="M 112 216 C 112 220.41827799864635 108.41827799864635 224 104 224 L 48 224 C 39.16344400270731 224 32 216.8365559972927 32 208 L 32 48 C 32 39.16344400270731 39.16344400270731 32 48 32 L 104 32 C 108.41827799864635 32 112 35.581722001353654 112 40 C 112 44.418277998646346 108.41827799864635 48 104 48 L 48 48 L 48 208 L 104 208 C 108.41827799864635 208 112 211.58172200135365 112 216 Z M 221.66 122.34 L 181.66 82.34 C 178.5340683159577 79.21406831595772 173.4659316840423 79.21406831595772 170.34 82.34 C 167.21406831595772 85.46593168404229 167.21406831595772 90.53406831595771 170.34 93.66 L 196.69 120 L 104 120 C 99.58172200135365 120 96 123.58172200135365 96 128 C 96 132.41827799864635 99.58172200135365 136 104 136 L 196.69 136 L 170.34 162.34 C 167.21406831595772 165.4659316840423 167.21406831595772 170.5340683159577 170.34 173.66 C 173.4659316840423 176.78593168404228 178.5340683159577 176.78593168404228 181.66 173.66 L 221.66 133.66 C 223.1622163442407 132.15945394286186 224.00629325132616 130.12327398479255 224.00629325132616 128 C 224.00629325132616 125.87672601520747 223.1622163442407 123.84054605713814 221.66 122.34 Z" stroke-linecap="round" /></g></g></g></svg>