<svg xmlns="http://www.w3.org/2000/svg" width="16" height="16"  viewBox="0 0 16 16"><g transform="matrix(1 0 0 1 0 0)"  ><g style=""   ><g transform="matrix(0.67 0 0 0.67 12.33 3)"  ><path style="stroke: none; stroke-width: 1; stroke-dasharray: none; stroke-linecap: butt; stroke-dashoffset: 0; stroke-linejoin: miter; stroke-miterlimit: 4; fill: rgb(23,26,31); fill-rule: nonzero; opacity: 1;"  transform=" translate(-18.5, -4.5)" d="M 15 5 L 15 2 C 15 1.44772 15.4477 1 16 1 C 16.5523 1 17 1.44772 17 2 L 17 5 L 17.0049 5.09863 C 17.0276 5.32763 17.1288 5.54289 17.293 5.70703 C 17.4805 5.89457 17.7348 6 18 6 L 21 6 C 21.5523 6 22 6.44772 22 7 C 22 7.55228 21.5523 8 21 8 L 18 8 C 17.2044 8 16.4415 7.6837 15.8789 7.12109 C 15.3867 6.6289 15.0829 5.98351 15.0146 5.29688 L 15 5 Z" stroke-linecap="round" /></g><g transform="matrix(0.67 0 0 0.67 10.67 5.33)"  ><path style="stroke: none; stroke-width: 1; stroke-dasharray: none; stroke-linecap: butt; stroke-dashoffset: 0; stroke-linejoin: miter; stroke-miterlimit: 4; fill: rgb(23,26,31); fill-rule: nonzero; opacity: 1;"  transform=" translate(-16, -8)" d="M 10 12.5 L 10 3.5 C 10 2.14772 11.1477 1 12.5 1 L 17 1 L 17.0986 1.00488 C 17.3276 1.02757 17.5429 1.12883 17.707 1.29297 L 21.707 5.29297 L 21.7734 5.36621 C 21.9193 5.54417 22 5.76791 22 6 L 22 12.5 C 22 13.8523 20.8523 15 19.5 15 L 12.5 15 C 11.1477 15 10 13.8523 10 12.5 Z M 12 12.5 C 12 12.7477 12.2523 13 12.5 13 L 19.5 13 C 19.7477 13 20 12.7477 20 12.5 L 20 6.41406 L 16.5859 3 L 12.5 3 C 12.2523 3 12 3.25228 12 3.5 L 12 12.5 Z" stroke-linecap="round" /></g><g transform="matrix(0.67 0 0 0.67 7.33 8.67)"  ><path style="stroke: none; stroke-width: 1; stroke-dasharray: none; stroke-linecap: butt; stroke-dashoffset: 0; stroke-linejoin: miter; stroke-miterlimit: 4; fill: rgb(23,26,31); fill-rule: nonzero; opacity: 1;"  transform=" translate(-11, -13)" d="M 6 8 C 6 7.44772 6.44772 7 7 7 C 7.55228 7 8 7.44772 8 8 L 8 16.752 C 8.00101 16.7539 8.00166 16.7565 8.00293 16.7588 C 8.0124 16.7761 8.02671 16.7983 8.0459 16.8232 C 8.06497 16.848 8.08639 16.8715 8.10742 16.8926 C 8.12846 16.9136 8.15197 16.935 8.17676 16.9541 C 8.2017 16.9733 8.22387 16.9876 8.24121 16.9971 C 8.24324 16.9982 8.24532 16.9991 8.24707 17 L 15 17 C 15.5523 17 16 17.4477 16 18 C 16 18.5523 15.5523 19 15 19 L 8.2002 19 C 7.50115 19 6.95827 18.5716 6.69336 18.3066 C 6.42845 18.0417 6 17.4988 6 16.7998 L 6 8 Z" stroke-linecap="round" /></g><g transform="matrix(0.67 0 0 0.67 4.67 11.33)"  ><path style="stroke: none; stroke-width: 1; stroke-dasharray: none; stroke-linecap: butt; stroke-dashoffset: 0; stroke-linejoin: miter; stroke-miterlimit: 4; fill: rgb(23,26,31); fill-rule: nonzero; opacity: 1;"  transform=" translate(-7, -17)" d="M 2 12 C 2 11.4477 2.44772 11 3 11 C 3.55228 11 4 11.4477 4 12 L 4 20.752 C 4.00101 20.7539 4.00166 20.7565 4.00293 20.7588 C 4.0124 20.7761 4.02671 20.7983 4.0459 20.8232 C 4.06497 20.848 4.08639 20.8715 4.10742 20.8926 C 4.12846 20.9136 4.15197 20.935 4.17676 20.9541 C 4.2017 20.9733 4.22387 20.9876 4.24121 20.9971 C 4.24324 20.9982 4.24532 20.9991 4.24707 21 L 11 21 C 11.5523 21 12 21.4477 12 22 C 12 22.5523 11.5523 23 11 23 L 4.2002 23 C 3.50115 23 2.95827 22.5716 2.69336 22.3066 C 2.42845 22.0417 2 21.4988 2 20.7998 L 2 12 Z" stroke-linecap="round" /></g></g></g></svg>