<svg xmlns="http://www.w3.org/2000/svg" width="9" height="9"  viewBox="0 0 9 9"><g transform="matrix(1 0 0 1 0 0)"  ><g style=""   ><g transform="matrix(0.38 0 0 0.38 4.5 4.42)"  ><path style="stroke: none; stroke-width: 1; stroke-dasharray: none; stroke-linecap: butt; stroke-dashoffset: 0; stroke-linejoin: miter; stroke-miterlimit: 4; fill: rgb(222,225,230); fill-rule: nonzero; opacity: 1;"  transform=" translate(-12, -11.79)" d="M 10.8112 2.54795 C 11.3155 1.59225 12.6842 1.59225 13.1884 2.54795 L 15.483 6.89708 C 15.6775 7.26564 16.0319 7.52314 16.4425 7.59418 L 21.2879 8.43255 C 22.3526 8.61677 22.7756 9.9185 22.0225 10.6934 L 18.5953 14.2197 C 18.3048 14.5185 18.1695 14.9351 18.2288 15.3476 L 18.9287 20.2149 C 19.0825 21.2844 17.9752 22.0889 17.0056 21.6121 L 12.5928 19.4424 C 12.2189 19.2585 11.7808 19.2585 11.4068 19.4424 L 6.99408 21.6121 C 6.02441 22.0889 4.91709 21.2844 5.0709 20.2149 L 5.77086 15.3476 C 5.83018 14.9351 5.6948 14.5185 5.40438 14.2197 L 1.97718 10.6934 C 1.22408 9.9185 1.64704 8.61677 2.71177 8.43255 L 7.55713 7.59418 C 7.96773 7.52314 8.32215 7.26564 8.5166 6.89709 L 10.8112 2.54795 Z" stroke-linecap="round" /></g></g></g></svg>