<svg xmlns="http://www.w3.org/2000/svg" width="26" height="26"  viewBox="0 0 26 26"><g transform="matrix(1 0 0 1 0 0)"  ><g style=""   ><g transform="matrix(0.93 0 0 0.93 3.25 13)"  ><line style="stroke: rgb(35,62,120); stroke-width: 2.4; stroke-dasharray: none; stroke-linecap: square; stroke-dashoffset: 0; stroke-linejoin: miter; stroke-miterlimit: 10; fill: none; fill-rule: nonzero; opacity: 1;"  x1="-0.5" y1="0" x2="0.5" y2="0" /></g><g transform="matrix(0.93 0 0 0.93 6.08 6.08)"  ><line style="stroke: rgb(35,62,120); stroke-width: 2.4; stroke-dasharray: none; stroke-linecap: square; stroke-dashoffset: 0; stroke-linejoin: miter; stroke-miterlimit: 10; fill: none; fill-rule: nonzero; opacity: 1;"  x1="-0.3500000000000001" y1="-0.3500000000000001" x2="0.3500000000000001" y2="0.3500000000000001" /></g><g transform="matrix(0.93 0 0 0.93 13 3.25)"  ><line style="stroke: rgb(35,62,120); stroke-width: 2.4; stroke-dasharray: none; stroke-linecap: square; stroke-dashoffset: 0; stroke-linejoin: miter; stroke-miterlimit: 10; fill: none; fill-rule: nonzero; opacity: 1;"  x1="0" y1="-0.5" x2="0" y2="0.5" /></g><g transform="matrix(0.93 0 0 0.93 19.92 6.08)"  ><line style="stroke: rgb(35,62,120); stroke-width: 2.4; stroke-dasharray: none; stroke-linecap: square; stroke-dashoffset: 0; stroke-linejoin: miter; stroke-miterlimit: 10; fill: none; fill-rule: nonzero; opacity: 1;"  x1="0.34999999999999964" y1="-0.3500000000000001" x2="-0.34999999999999964" y2="0.3500000000000001" /></g><g transform="matrix(0.93 0 0 0.93 22.75 13)"  ><line style="stroke: rgb(35,62,120); stroke-width: 2.4; stroke-dasharray: none; stroke-linecap: square; stroke-dashoffset: 0; stroke-linejoin: miter; stroke-miterlimit: 10; fill: none; fill-rule: nonzero; opacity: 1;"  x1="0.5" y1="0" x2="-0.5" y2="0" /></g><g transform="matrix(0.93 0 0 0.93 19.92 19.92)"  ><line style="stroke: rgb(35,62,120); stroke-width: 2.4; stroke-dasharray: none; stroke-linecap: square; stroke-dashoffset: 0; stroke-linejoin: miter; stroke-miterlimit: 10; fill: none; fill-rule: nonzero; opacity: 1;"  x1="0.34999999999999964" y1="0.34999999999999964" x2="-0.34999999999999964" y2="-0.34999999999999964" /></g><g transform="matrix(0.93 0 0 0.93 13 22.75)"  ><line style="stroke: rgb(35,62,120); stroke-width: 2.4; stroke-dasharray: none; stroke-linecap: square; stroke-dashoffset: 0; stroke-linejoin: miter; stroke-miterlimit: 10; fill: none; fill-rule: nonzero; opacity: 1;"  x1="0" y1="0.5" x2="0" y2="-0.5" /></g><g transform="matrix(0.93 0 0 0.93 6.08 19.92)"  ><line style="stroke: rgb(35,62,120); stroke-width: 2.4; stroke-dasharray: none; stroke-linecap: square; stroke-dashoffset: 0; stroke-linejoin: miter; stroke-miterlimit: 10; fill: none; fill-rule: nonzero; opacity: 1;"  x1="-0.3500000000000001" y1="0.34999999999999964" x2="0.3500000000000001" y2="-0.34999999999999964" /></g><g transform="matrix(0.93 0 0 0.93 13 13)"  ><circle style="stroke: rgb(35,62,120); stroke-width: 2.4; stroke-dasharray: none; stroke-linecap: square; stroke-dashoffset: 0; stroke-linejoin: miter; stroke-miterlimit: 10; fill: none; fill-rule: nonzero; opacity: 1;"  cx="0" cy="0" r="6" /></g></g></g></svg>