<svg xmlns="http://www.w3.org/2000/svg" width="20" height="20"  viewBox="0 0 20 20"><g transform="matrix(1 0 0 1 0 0)"  ><g style=""   ><g transform="matrix(0.83 0 0 0.83 15.69 15.69)"  ><path style="stroke: none; stroke-width: 1; stroke-dasharray: none; stroke-linecap: butt; stroke-dashoffset: 0; stroke-linejoin: miter; stroke-miterlimit: 4; fill: rgb(35,62,120); fill-opacity: 0.8; fill-rule: nonzero; opacity: 1;"  transform=" translate(-18.83, -18.83)" d="M 15.953 15.953 C 16.3191 15.5869 16.8981 15.5643 17.2909 15.8847 L 17.3671 15.953 L 21.7069 20.2929 L 21.7763 20.369 C 22.0963 20.7618 22.0729 21.3409 21.7069 21.7069 C 21.3409 22.0729 20.7618 22.0963 20.369 21.7763 L 20.2929 21.7069 L 15.953 17.3671 L 15.8847 17.2909 C 15.5643 16.8981 15.5869 16.3191 15.953 15.953 Z" stroke-linecap="round" /></g><g transform="matrix(0.83 0 0 0.83 9.17 9.17)"  ><path style="stroke: none; stroke-width: 1; stroke-dasharray: none; stroke-linecap: butt; stroke-dashoffset: 0; stroke-linejoin: miter; stroke-miterlimit: 4; fill: rgb(35,62,120); fill-opacity: 0.8; fill-rule: nonzero; opacity: 1;"  transform=" translate(-11, -11)" d="M 18 11 C 18 7.13401 14.866 4 11 4 C 7.13401 4 4 7.13401 4 11 C 4 14.866 7.13401 18 11 18 C 14.866 18 18 14.866 18 11 Z M 20 11 C 20 15.9706 15.9706 20 11 20 C 6.02944 20 2 15.9706 2 11 C 2 6.02944 6.02944 2 11 2 C 15.9706 2 20 6.02944 20 11 Z" stroke-linecap="round" /></g></g></g></svg>