<svg xmlns="http://www.w3.org/2000/svg" width="26" height="26"  viewBox="0 0 26 26"><g transform="matrix(1 0 0 1 0 0)"  ><g style=""   ><g transform="matrix(0.1 0 0 0.1 13 13)" id="Flat"  ><path style="stroke: none; stroke-width: 1; stroke-dasharray: none; stroke-linecap: butt; stroke-dashoffset: 0; stroke-linejoin: miter; stroke-miterlimit: 4; fill: rgb(35,62,120); fill-rule: nonzero; opacity: 1;"  transform=" translate(-128, -128)" d="M 53.92 34.62 C 52.008101895856775 32.464841809454555 49.085068624011804 31.50414071924003 46.26740942319905 32.1048551397235 C 43.449750222386285 32.70556956020697 41.17270983754751 34.774906936969245 40.30604799777335 37.522443732424556 C 39.43938615799919 40.269980527879866 40.116976403174974 43.271303828141725 42.08 45.379999999999995 L 61.32 66.55 C 25 88.84 9.38 123.2 8.69 124.76 C 7.770127678142301 126.82903223337591 7.770127678142302 129.19096776662408 8.690000000000001 131.26 C 9.04 132.04999999999998 17.509999999999998 150.82999999999998 36.339999999999996 169.66 C 61.43 194.74 93.12 208 128 208 C 145.9261635707113 208.10213155207305 163.67120250842294 204.4113542965436 180.07000000000002 197.16999999999996 L 202.07 221.38 C 203.98189810414317 223.53515819054562 206.9049313759882 224.49585928076027 209.72259057680108 223.89514486027684 C 212.54024977761395 223.2944304397934 214.81729016245282 221.22509306303104 215.68395200222696 218.4775562675756 C 216.5506138420011 215.7300194721202 215.8730235968252 212.72869617185825 213.91 210.62 Z M 101.25 110.46000000000001 L 142.92000000000002 156.31 C 130.01344795531867 163.0998955908754 114.14867103177099 160.30445167073324 104.34019451037952 149.51206749732793 C 94.53171798898804 138.71968332392262 93.26096905867702 122.66070294842231 101.25000000000003 110.46 Z M 128 192 C 97.22 192 70.33 180.81 48.06999999999999 158.75 C 38.93315322766344 149.66981176097624 31.16219502076058 139.31190257752314 24.999999999999986 127.99999999999997 C 29.69 119.21000000000001 44.66 94.61 72.35 78.62 L 90.35 98.37 C 75.96235354511121 116.79690377231552 76.94306205894553 142.90930124693196 92.67235306375896 160.20509719944437 C 108.4016440685724 177.50089315195677 134.30397283488355 180.9488571226778 154.01 168.37 L 168.73999999999998 184.57 C 155.73991751487915 189.5575632830654 141.92379107132032 192.0772937562034 128 192 Z M 134 96.57 C 129.65904186632997 95.74157287525381 126.81157287525382 91.55095813367002 127.64 87.21 C 128.4684271247462 82.86904186632995 132.65904186632997 80.02157287525381 137 80.85 C 157.93991387007213 84.90956354870958 173.71510176943238 102.2594219967034 175.77000000000004 123.48999999999998 C 176.18131827167554 127.88890670410855 172.94888259587736 131.78842398059084 168.55 132.2 C 168.30021562030464 132.21468401527608 168.04978437969538 132.21468401527608 167.8 132.2 C 163.65528354565438 132.21776633334238 160.1833517166663 129.06698819853568 159.8 124.93999999999998 C 158.4171781674921 110.81971106593659 147.92594968373606 99.28342610143432 134 96.57 Z M 247.28 131.26 C 246.86 132.2 236.73 154.63 213.92000000000002 175.06 C 211.7987391236893 177.0204420901262 208.78541522072823 177.68517460769098 206.03622847177263 176.79914237719828 C 203.28704172281704 175.91311014670558 201.22895727522598 173.6139192736704 200.65165379838226 170.7837599866816 C 200.07435032153853 167.95360069969274 201.06748649874373 165.0320136656322 203.25000000000003 163.14000000000001 C 214.44051599453206 153.08619144438626 223.84101885993343 141.20368530445086 231.05000000000007 127.99999999999996 C 224.8742112415659 116.67774861427664 217.0862021496161 106.31282474925521 207.93000000000004 97.23000000000005 C 185.67 75.19 158.78 64 128 64 C 121.5145537084613 63.992085814826865 115.03942653772447 64.517186520305 108.63999999999997 65.57 C 105.80814518957952 66.07080024382705 102.92539069088043 65.01310825609069 101.08940206753391 62.799661096915436 C 99.25341344418739 60.58621393774019 98.74673188549316 57.557640075545194 99.76228637619712 54.86712866915237 C 100.77784086690107 52.17661726275955 103.15934722857558 50.238212431462586 106 49.79 C 113.27162933837678 48.589341527681015 120.62991950705842 47.99064428213829 127.99999999999991 48.00000000000001 C 162.88 48 194.57 61.26 219.66 86.35 C 238.49 105.17999999999999 246.96 123.97 247.31 124.75999999999999 C 248.2298723218577 126.8290322333759 248.2298723218577 129.19096776662408 247.31 131.26 Z" stroke-linecap="round" /></g></g></g></svg>