<svg xmlns="http://www.w3.org/2000/svg" width="26" height="26"  viewBox="0 0 26 26"><g transform="matrix(1 0 0 1 0 0)"  ><g style=""   ><g transform="matrix(1.08 0 0 1.08 19.5 16.25)"  ><path style="stroke: none; stroke-width: 1; stroke-dasharray: none; stroke-linecap: butt; stroke-dashoffset: 0; stroke-linejoin: miter; stroke-miterlimit: 4; fill: rgb(30,41,59); fill-rule: nonzero; opacity: 1;"  transform=" translate(-18, -15)" d="M 17 20 L 17 10 C 17 9.44772 17.4477 9 18 9 C 18.5523 9 19 9.44772 19 10 L 19 20 C 19 20.5523 18.5523 21 18 21 C 17.4477 21 17 20.5523 17 20 Z" stroke-linecap="round" /></g><g transform="matrix(1.08 0 0 1.08 13 13)"  ><path style="stroke: none; stroke-width: 1; stroke-dasharray: none; stroke-linecap: butt; stroke-dashoffset: 0; stroke-linejoin: miter; stroke-miterlimit: 4; fill: rgb(30,41,59); fill-rule: nonzero; opacity: 1;"  transform=" translate(-12, -12)" d="M 11 20 L 11 4 C 11 3.44772 11.4477 3 12 3 C 12.5523 3 13 3.44772 13 4 L 13 20 C 13 20.5523 12.5523 21 12 21 C 11.4477 21 11 20.5523 11 20 Z" stroke-linecap="round" /></g><g transform="matrix(1.08 0 0 1.08 6.5 18.42)"  ><path style="stroke: none; stroke-width: 1; stroke-dasharray: none; stroke-linecap: butt; stroke-dashoffset: 0; stroke-linejoin: miter; stroke-miterlimit: 4; fill: rgb(30,41,59); fill-rule: nonzero; opacity: 1;"  transform=" translate(-6, -17)" d="M 5 20 L 5 14 C 5 13.4477 5.44772 13 6 13 C 6.55228 13 7 13.4477 7 14 L 7 20 C 7 20.5523 6.55228 21 6 21 C 5.44772 21 5 20.5523 5 20 Z" stroke-linecap="round" /></g></g></g></svg>