<svg xmlns="http://www.w3.org/2000/svg" width="16" height="16"  viewBox="0 0 16 16"><g transform="matrix(1 0 0 1 0 0)"  ><g style=""   ><g transform="matrix(0.67 0 0 0.67 8 12)"  ><path style="stroke: none; stroke-width: 1; stroke-dasharray: none; stroke-linecap: butt; stroke-dashoffset: 0; stroke-linejoin: miter; stroke-miterlimit: 4; fill: rgb(23,26,31); fill-rule: nonzero; opacity: 1;"  transform=" translate(-12, -18)" d="M 18 21 L 18 19 C 18 18.2044 17.6837 17.4415 17.1211 16.8789 C 16.6289 16.3867 15.9835 16.0829 15.2969 16.0146 L 15 16 L 9 16 C 8.20435 16 7.44152 16.3163 6.87891 16.8789 C 6.3163 17.4415 6 18.2044 6 19 L 6 21 C 6 21.5523 5.55228 22 5 22 C 4.44772 22 4 21.5523 4 21 L 4 19 C 4 17.6739 4.52716 16.4025 5.46484 15.4648 C 6.40253 14.5272 7.67392 14 9 14 L 15 14 L 15.248 14.0059 C 16.4838 14.0672 17.6561 14.5858 18.5352 15.4648 C 19.4728 16.4025 20 17.6739 20 19 L 20 21 C 20 21.5523 19.5523 22 19 22 C 18.4477 22 18 21.5523 18 21 Z" stroke-linecap="round" /></g><g transform="matrix(0.67 0 0 0.67 8 4.67)"  ><path style="stroke: none; stroke-width: 1; stroke-dasharray: none; stroke-linecap: butt; stroke-dashoffset: 0; stroke-linejoin: miter; stroke-miterlimit: 4; fill: rgb(23,26,31); fill-rule: nonzero; opacity: 1;"  transform=" translate(-12, -7)" d="M 15 7 C 15 5.34315 13.6569 4 12 4 C 10.3431 4 9 5.34315 9 7 C 9 8.65685 10.3431 10 12 10 C 13.6569 10 15 8.65685 15 7 Z M 17 7 C 17 9.76142 14.7614 12 12 12 C 9.23858 12 7 9.76142 7 7 C 7 4.23858 9.23858 2 12 2 C 14.7614 2 17 4.23858 17 7 Z" stroke-linecap="round" /></g></g></g></svg>