<svg xmlns="http://www.w3.org/2000/svg" width="22" height="22"  viewBox="0 0 22 22"><g transform="matrix(1 0 0 1 0 0)"  ><g style=""   ><g transform="matrix(0.92 0 0 0.92 11 8.24)"  ><path style="stroke: none; stroke-width: 1; stroke-dasharray: none; stroke-linecap: butt; stroke-dashoffset: 0; stroke-linejoin: miter; stroke-miterlimit: 4; fill: rgb(35,62,120); fill-rule: nonzero; opacity: 1;"  transform=" translate(-12, -8.99)" d="M 16 12 L 16 6 C 16 3.783 14.215 1.979 12.021 1.979 C 11.952 1.979 11.881 1.988 11.812000000000001 2.004 C 9.693 2.104 8 3.857 8 6 L 8 12 C 8 14.206 9.794 16 12 16 C 14.206 16 16 14.206 16 12 z M 10 12 L 10 6 C 10 4.897 10.897 4 12 4 C 12.055 4 12.109 3.995 12.163 3.985 C 13.188 4.06 14 4.935 14 6 L 14 12 C 14 13.103 13.103 14 12 14 C 10.897 14 10 13.103 10 12 z" stroke-linecap="round" /></g><g transform="matrix(0.92 0 0 0.92 11 15.58)"  ><path style="stroke: none; stroke-width: 1; stroke-dasharray: none; stroke-linecap: butt; stroke-dashoffset: 0; stroke-linejoin: miter; stroke-miterlimit: 4; fill: rgb(35,62,120); fill-rule: nonzero; opacity: 1;"  transform=" translate(-12, -17)" d="M 6 12 L 4 12 C 4 16.072 7.061 19.436 11 19.931 L 11 22 L 13 22 L 13 19.931 C 16.939 19.436 20 16.073 20 12 L 18 12 C 18 15.309000000000001 15.309000000000001 18 12 18 C 8.690999999999999 18 6 15.309 6 12 z" stroke-linecap="round" /></g></g></g></svg>