<svg xmlns="http://www.w3.org/2000/svg" width="26" height="26"  viewBox="0 0 26 26"><g transform="matrix(1 0 0 1 0 0)"  ><g style=""   ><g transform="matrix(1.08 0 0 1.08 13 13)"  ><path style="stroke: none; stroke-width: 1; stroke-dasharray: none; stroke-linecap: butt; stroke-dashoffset: 0; stroke-linejoin: miter; stroke-miterlimit: 4; fill: rgb(127,85,224); fill-rule: nonzero; opacity: 1;"  transform=" translate(-12, -12)" d="M 21 12 C 21 7.02944 16.9706 3 12 3 C 7.02944 3 3 7.02944 3 12 C 3 16.9706 7.02944 21 12 21 C 16.9706 21 21 16.9706 21 12 Z M 23 12 C 23 18.0751 18.0751 23 12 23 C 5.92487 23 1 18.0751 1 12 C 1 5.92487 5.92487 1 12 1 C 18.0751 1 23 5.92487 23 12 Z" stroke-linecap="round" /></g><g transform="matrix(1.08 0 0 1.08 13 13)"  ><path style="stroke: none; stroke-width: 1; stroke-dasharray: none; stroke-linecap: butt; stroke-dashoffset: 0; stroke-linejoin: miter; stroke-miterlimit: 4; fill: rgb(127,85,224); fill-rule: nonzero; opacity: 1;"  transform=" translate(-12, -12)" d="M 14.3692 9.22462 C 14.7619 8.90427 15.3409 8.92686 15.707 9.29298 C 16.0732 9.65909 16.0958 10.2381 15.7754 10.6309 L 15.707 10.707 L 11.707 14.707 C 11.3409 15.0732 10.7619 15.0958 10.3692 14.7754 L 10.293 14.707 L 8.29298 12.707 L 8.22462 12.6309 C 7.90427 12.2381 7.92686 11.6591 8.29298 11.293 C 8.65909 10.9269 9.2381 10.9043 9.63087 11.2246 L 9.70704 11.293 L 11 12.5859 L 14.293 9.29298 L 14.3692 9.22462 Z" stroke-linecap="round" /></g></g></g></svg>