<svg xmlns="http://www.w3.org/2000/svg" width="16" height="16"  viewBox="0 0 16 16"><g transform="matrix(1 0 0 1 0 0)"  ><g style=""   ><g transform="matrix(0.67 0 0 0.67 8 8)"  ><path style="stroke: none; stroke-width: 1; stroke-dasharray: none; stroke-linecap: butt; stroke-dashoffset: 0; stroke-linejoin: miter; stroke-miterlimit: 4; fill: rgb(255,255,255); fill-rule: nonzero; opacity: 1;"  transform=" translate(-12, -12)" d="M 21 8.5 C 21 7.30653 20.5256 6.16227 19.6816 5.31836 C 18.8377 4.47445 17.6935 4 16.5 4 C 15.7202 4 15.1131 4.10999 14.5518 4.35449 C 13.984 4.60181 13.4 5.01407 12.707 5.70703 C 12.3165 6.09756 11.6835 6.09756 11.293 5.70703 C 10.6 5.01407 10.016 4.60181 9.44824 4.35449 C 8.88687 4.10999 8.27982 4 7.5 4 C 6.30653 4 5.16227 4.47445 4.31836 5.31836 C 3.47445 6.16227 3 7.30653 3 8.5 C 3 10.116 3.91951 11.4583 5.15039 12.7363 L 12 19.5859 L 18.2998 13.2861 L 18.8447 12.7354 C 20.0754 11.446 21 10.1064 21 8.5 Z M 23 8.5 C 23 11.2396 21.1925 13.2488 19.7061 14.7061 L 19.707 14.707 L 12.707 21.707 C 12.3165 22.0976 11.6835 22.0976 11.293 21.707 L 4.30469 14.7188 L 3.73047 14.1465 C 2.37747 12.749 1 10.9088 1 8.5 C 1 6.77609 1.68433 5.12231 2.90332 3.90332 C 4.12231 2.68433 5.77609 2 7.5 2 C 8.48018 2 9.37344 2.14001 10.2471 2.52051 C 10.8603 2.78761 11.4318 3.16121 12 3.6416 C 12.5682 3.16121 13.1397 2.78761 13.7529 2.52051 C 14.6266 2.14001 15.5198 2 16.5 2 C 18.2239 2 19.8777 2.68433 21.0967 3.90332 C 22.3157 5.12231 23 6.77609 23 8.5 Z" stroke-linecap="round" /></g></g></g></svg>