<svg xmlns="http://www.w3.org/2000/svg" width="16" height="16"  viewBox="0 0 16 16"><g transform="matrix(1 0 0 1 0 0)"  ><g style=""   ><g transform="matrix(0.67 0 0 0.67 8 8)"  ><path style="stroke: none; stroke-width: 1; stroke-dasharray: none; stroke-linecap: butt; stroke-dashoffset: 0; stroke-linejoin: miter; stroke-miterlimit: 4; fill: rgb(23,26,31); fill-rule: nonzero; opacity: 1;"  transform=" translate(-12, -12)" d="M 3 20 L 3 4 C 3 3.20435 3.3163 2.44152 3.87891 1.87891 C 4.44152 1.3163 5.20435 1 6 1 L 15 1 L 15.0986 1.00488 C 15.3276 1.02757 15.5429 1.12883 15.707 1.29297 L 20.707 6.29297 C 20.8946 6.48051 21 6.73478 21 7 L 21 20 C 21 20.7957 20.6837 21.5585 20.1211 22.1211 C 19.5585 22.6837 18.7957 23 18 23 L 6 23 C 5.20435 23 4.44152 22.6837 3.87891 22.1211 C 3.3163 21.5585 3 20.7956 3 20 Z M 5 20 C 5 20.2652 5.10543 20.5195 5.29297 20.707 C 5.48051 20.8946 5.73478 21 6 21 L 18 21 C 18.2652 21 18.5195 20.8946 18.707 20.707 C 18.8946 20.5195 19 20.2652 19 20 L 19 7.41406 L 14.5859 3 L 6 3 C 5.73478 3 5.48051 3.10543 5.29297 3.29297 C 5.10543 3.48051 5 3.73478 5 4 L 5 20 Z" stroke-linecap="round" /></g><g transform="matrix(0.67 0 0 0.67 11.33 3.33)"  ><path style="stroke: none; stroke-width: 1; stroke-dasharray: none; stroke-linecap: butt; stroke-dashoffset: 0; stroke-linejoin: miter; stroke-miterlimit: 4; fill: rgb(23,26,31); fill-rule: nonzero; opacity: 1;"  transform=" translate(-17, -5)" d="M 13 6 L 13 2 C 13 1.44772 13.4477 1 14 1 C 14.5523 1 15 1.44772 15 2 L 15 6 C 15 6.26522 15.1054 6.51949 15.293 6.70703 C 15.4805 6.89457 15.7348 7 16 7 L 20 7 C 20.5523 7 21 7.44772 21 8 C 21 8.55228 20.5523 9 20 9 L 16 9 C 15.2044 9 14.4415 8.6837 13.8789 8.12109 C 13.3163 7.55848 13 6.79565 13 6 Z" stroke-linecap="round" /></g><g transform="matrix(0.67 0 0 0.67 6 6)"  ><path style="stroke: none; stroke-width: 1; stroke-dasharray: none; stroke-linecap: butt; stroke-dashoffset: 0; stroke-linejoin: miter; stroke-miterlimit: 4; fill: rgb(23,26,31); fill-rule: nonzero; opacity: 1;"  transform=" translate(-9, -9)" d="M 10 8 C 10.5523 8 11 8.44772 11 9 C 11 9.55228 10.5523 10 10 10 L 8 10 C 7.44772 10 7 9.55228 7 9 C 7 8.44772 7.44772 8 8 8 L 10 8 Z" stroke-linecap="round" /></g><g transform="matrix(0.67 0 0 0.67 8 8.67)"  ><path style="stroke: none; stroke-width: 1; stroke-dasharray: none; stroke-linecap: butt; stroke-dashoffset: 0; stroke-linejoin: miter; stroke-miterlimit: 4; fill: rgb(23,26,31); fill-rule: nonzero; opacity: 1;"  transform=" translate(-12, -13)" d="M 16 12 C 16.5523 12 17 12.4477 17 13 C 17 13.5523 16.5523 14 16 14 L 8 14 C 7.44772 14 7 13.5523 7 13 C 7 12.4477 7.44772 12 8 12 L 16 12 Z" stroke-linecap="round" /></g><g transform="matrix(0.67 0 0 0.67 8 11.33)"  ><path style="stroke: none; stroke-width: 1; stroke-dasharray: none; stroke-linecap: butt; stroke-dashoffset: 0; stroke-linejoin: miter; stroke-miterlimit: 4; fill: rgb(23,26,31); fill-rule: nonzero; opacity: 1;"  transform=" translate(-12, -17)" d="M 16 16 C 16.5523 16 17 16.4477 17 17 C 17 17.5523 16.5523 18 16 18 L 8 18 C 7.44772 18 7 17.5523 7 17 C 7 16.4477 7.44772 16 8 16 L 16 16 Z" stroke-linecap="round" /></g></g></g></svg>