<svg xmlns="http://www.w3.org/2000/svg" width="16" height="16"  viewBox="0 0 16 16"><g transform="matrix(1 0 0 1 0 0)"  ><g style=""   ><g transform="matrix(0.67 0 0 0.67 8 8)"  ><path style="stroke: none; stroke-width: 1; stroke-dasharray: none; stroke-linecap: butt; stroke-dashoffset: 0; stroke-linejoin: miter; stroke-miterlimit: 4; fill: rgb(35,62,120); fill-rule: nonzero; opacity: 1;"  transform=" translate(-12, -12)" d="M 19 11 C 19.5523 11 20 11.4477 20 12 C 20 12.5523 19.5523 13 19 13 L 5 13 C 4.44772 13 4 12.5523 4 12 C 4 11.4477 4.44772 11 5 11 L 19 11 Z" stroke-linecap="round" /></g><g transform="matrix(0.67 0 0 0.67 10.33 8)"  ><path style="stroke: none; stroke-width: 1; stroke-dasharray: none; stroke-linecap: butt; stroke-dashoffset: 0; stroke-linejoin: miter; stroke-miterlimit: 4; fill: rgb(35,62,120); fill-rule: nonzero; opacity: 1;"  transform=" translate(-15.5, -12)" d="M 11.293 4.29297 C 11.6591 3.92685 12.2381 3.90426 12.6309 4.22461 L 12.7071 4.29297 L 19.7071 11.293 C 20.0976 11.6835 20.0976 12.3165 19.7071 12.707 L 12.7071 19.707 C 12.3166 20.0976 11.6835 20.0976 11.293 19.707 C 10.9025 19.3165 10.9025 18.6835 11.293 18.293 L 17.586 12 L 11.293 5.70703 L 11.2247 5.63086 C 10.9043 5.23809 10.9269 4.65909 11.293 4.29297 Z" stroke-linecap="round" /></g></g></g></svg>