<svg xmlns="http://www.w3.org/2000/svg" width="28" height="28"  viewBox="0 0 28 28"><g transform="matrix(1 0 0 1 0 0)"  ><g style=""   ><g transform="matrix(1.17 0 0 1.17 14 14)"  ><path style="stroke: none; stroke-width: 1; stroke-dasharray: none; stroke-linecap: butt; stroke-dashoffset: 0; stroke-linejoin: miter; stroke-miterlimit: 4; fill: rgb(22,29,150); fill-rule: nonzero; opacity: 1;"  transform=" translate(-12, -12)" d="M 21 12 C 21 7.02944 16.9706 3 12 3 C 7.02944 3 3 7.02944 3 12 C 3 16.9706 7.02944 21 12 21 C 16.9706 21 21 16.9706 21 12 Z M 23 12 C 23 18.0751 18.0751 23 12 23 C 5.92487 23 1 18.0751 1 12 C 1 5.92487 5.92487 1 12 1 C 18.0751 1 23 5.92487 23 12 Z" stroke-linecap="round" /></g><g transform="matrix(1.17 0 0 1.17 16.33 11.67)"  ><path style="stroke: none; stroke-width: 1; stroke-dasharray: none; stroke-linecap: butt; stroke-dashoffset: 0; stroke-linejoin: miter; stroke-miterlimit: 4; fill: rgb(22,29,150); fill-rule: nonzero; opacity: 1;"  transform=" translate(-14, -10)" d="M 11 6 C 11 5.44772 11.4477 5 12 5 C 12.5523 5 13 5.44772 13 6 L 13 11.3818 L 16.4473 13.1055 L 16.5361 13.1562 C 16.9643 13.4276 17.1261 13.9842 16.8945 14.4473 C 16.663 14.9104 16.1204 15.1153 15.6465 14.9355 L 15.5527 14.8945 L 11.5527 12.8945 C 11.214 12.7251 11 12.3788 11 12 L 11 6 Z" stroke-linecap="round" /></g></g></g></svg>