<svg xmlns="http://www.w3.org/2000/svg" width="26" height="26"  viewBox="0 0 26 26"><g transform="matrix(1 0 0 1 0 0)"  ><g style=""   ><g transform="matrix(0.93 0 0 0.93 13 11.61)"  ><path style="stroke: rgb(35,62,120); stroke-width: 2.4; stroke-dasharray: none; stroke-linecap: square; stroke-dashoffset: 0; stroke-linejoin: miter; stroke-miterlimit: 10; fill: none; fill-rule: nonzero; opacity: 1;"  transform=" translate(-12, -10.5)" d="M 19 13 L 19 8 C 19 4.134006751184446 15.865993248815554 1 12 1 C 8.134006751184446 1 5 4.134006751184445 5 7.999999999999999 L 5 13 C 4.970256824881672 15.470047051789095 4.279676878674902 17.88707686351278 2.9999999999999982 20 L 21 20 C 19.720323121325098 17.887076863512785 19.02974317511833 15.470047051789095 19 13.000000000000004 Z" stroke-linecap="round" /></g><g transform="matrix(0.93 0 0 0.93 13 23.21)"  ><path style="stroke: none; stroke-width: 1; stroke-dasharray: none; stroke-linecap: butt; stroke-dashoffset: 0; stroke-linejoin: miter; stroke-miterlimit: 4; fill: rgb(35,62,120); fill-rule: nonzero; opacity: 1;"  transform=" translate(-12, -23)" d="M 9.174 22 C 9.599787448297088 23.195102481148293 10.731313714279944 23.99316138333892 12 23.99316138333892 C 13.268686285720054 23.99316138333892 14.400212551702912 23.195102481148293 14.826 22 Z" stroke-linecap="round" /></g></g></g></svg>